<?xml version="1.0" encoding="utf-8"?>
<!-- Generator: Adobe Illustrator 19.0.0, SVG Export Plug-In . SVG Version: 6.00 Build 0)  -->
<svg version="1.1" id="Capa_1" xmlns="http://www.w3.org/2000/svg" xmlns:xlink="http://www.w3.org/1999/xlink" x="0px" y="0px"
	 viewBox="-49 141 512 512" style="enable-background:new -49 141 512 512;" xml:space="preserve">
<style type="text/css">
	.st0{fill:#D9D9D9;}
	.st1{fill:#A5A5A5;}
	.st2{fill:#E8E8E8;}
	.st3{fill:#E6E6E6;}
	.st4{fill:#727272;}
	.st5{fill:#565656;}
	.st6{fill:url(#SVGID_1_);}
	.st7{fill:#A3A3A3;}
	.st8{fill:#808080;}
	.st9{fill:#535353;}
	.st10{fill:url(#SVGID_2_);}
	.st11{fill:#D5D5D5;}
	.st12{fill:#3D3D3D;}
	.st13{fill:#6D6D6D;}
</style>
<g>
	<g>
		<path class="st0" d="M120.4,240.4L-49,338.2l27.1,93.5L155.1,533c54.9,31.7,133.5,46.8,217.3,41.7c14-0.8,27-7.7,35.6-18.8
			l51-65.5L120.4,240.4z"/>
		<path class="st1" d="M219.7,450.1l132.4-76.5L120.4,240.4L-49,338.2l268.7,154.6V450.1z"/>
		<path class="st2" d="M207.6,471.8L-24.8,338.2l145.2-83.8l189.6,109l17.5,10.1l0.4,0.2l12.1,7l12.1-7L120.4,240.4L-49,338.2
			l268.7,154.6v-14L207.6,471.8z"/>
		<path class="st3" d="M389.1,352.3c54.9,31.7,81,77.1,72.3,125.5l-2.3,12.7l-22,1.3c-83.8,5.1-162.4-10-217.3-41.7L389.1,352.3z"/>
		<path class="st1" d="M389,366.3c22.4,13.9,39.1,30.2,49.6,48.5c11,19.2,14.7,39.6,10.8,60.8l-0.6,3.4l-12.6,0.8
			c-10.3,0.6-20.7,0.9-30.9,0.9c-60.7,0-116.7-11-160.5-31.2L389,366.3z"/>
	</g>
	<path class="st4" d="M392.4,551.7c-93.8,5.7-182-11.2-243.5-46.7L-30.4,402.4l8.5,29.3L155.1,533c54.9,31.7,133.5,46.8,217.3,41.7
		c14-0.8,27-7.7,35.6-18.8l9.4-12.1C409.9,548.4,401.4,551.2,392.4,551.7L392.4,551.7z"/>
	<g>
		<path class="st4" d="M20.4,322.2v-49.6l108.4-13.4v49.6c0,1.1-0.6,2.3-1.7,2.9l-60.3,35.1c-2.2,1.3-5,1.3-7.3,0l-37.5-21.6
			C20.9,324.5,20.4,323.4,20.4,322.2L20.4,322.2z"/>
		<path class="st2" d="M127.1,256.2l-37.5-21.6c-2.2-1.3-5-1.3-7.3,0l-60.3,35.1c-2.3,1.3-2.3,4.5,0,5.8l37.5,21.6
			c2.2,1.3,5,1.3,7.3,0l60.3-35.1C129.3,260.8,129.3,257.5,127.1,256.2z"/>
		<g>
			<path class="st5" d="M59.5,316.9c2.2,1.3,5,1.3,7.3,0l58.2-33.9v-9.9L66.8,307c-2.2,1.3-5,1.3-7.3,0l-36.4-21v9.9L59.5,316.9z"/>
			<path class="st5" d="M59.5,335.2c2.2,1.3,5,1.3,7.3,0l58.2-33.9v-9.9l-58.2,33.9c-2.2,1.3-5,1.3-7.3,0l-36.4-21v9.9L59.5,335.2z"
				/>
		</g>
	</g>
	<g>
		
			<linearGradient id="SVGID_1_" gradientUnits="userSpaceOnUse" x1="115.042" y1="450.2587" x2="129.083" y2="450.2587" gradientTransform="matrix(-1 0 0 -1 263.454 796)">
			<stop  offset="0" style="stop-color:#535353"/>
			<stop  offset="1" style="stop-color:#808080"/>
		</linearGradient>
		<path class="st6" d="M87.5,370.4v-65.2l142.3-17.7v65.2c0,1.5-0.7,3-2.2,3.8l-79.2,46.1c-2.9,1.7-6.6,1.7-9.5,0l-49.2-28.4
			C88.3,373.4,87.5,371.9,87.5,370.4L87.5,370.4z"/>
		<path class="st7" d="M227.7,283.7l-49.2-28.4c-2.9-1.7-6.6-1.7-9.5,0l-79.2,46.1c-3,1.7-3,6,0,7.7l49.2,28.4
			c2.9,1.7,6.6,1.7,9.5,0l79.2-46.1C230.6,289.7,230.6,285.4,227.7,283.7z"/>
		<g>
			<path class="st8" d="M186,376l-5.1,3v-55.3l5.1-3V376z"/>
			<path class="st8" d="M155.2,338.5v55.3l-5.7,3.3v-55.3L155.2,338.5z"/>
			<path class="st8" d="M175.7,326.7V382l-5.1,3v-55.3L175.7,326.7z"/>
			<path class="st8" d="M196.3,370.1l-5.1,3v-55.3l5.1-3V370.1z"/>
			<path class="st8" d="M165.5,332.6v55.3l-5.1,3v-55.3L165.5,332.6z"/>
			<path class="st8" d="M201.4,311.8l4.9-2.8v55.3l-4.9,2.8V311.8z"/>
			<path class="st8" d="M221.9,299.9l4.9-2.8v55.3l-4.9,2.8V299.9z"/>
			<path class="st8" d="M216.9,358.1l-5.1,3v-55.3l5.1-3V358.1z"/>
			<path class="st8" d="M222,299.8l4.9-2.8v55.3l-4.9,2.8V299.8z"/>
		</g>
		<g>
			<path class="st9" d="M114.8,328.3l23.4,13.5v55.3l-23.4-13.5V328.3z"/>
			<path class="st9" d="M112.6,327v55.3l-21.1-12.2v-55.3L112.6,327z"/>
		</g>
		<path class="st7" d="M109,355.8l9.7,5.6c1,0.6,1.8,0,1.8-1.3s-0.8-2.8-1.8-3.4l-9.7-5.6c-1-0.6-1.8,0-1.8,1.3
			C107.2,353.7,108,355.2,109,355.8L109,355.8z"/>
	</g>
	<g>
		
			<linearGradient id="SVGID_2_" gradientUnits="userSpaceOnUse" x1="51.746" y1="413.6038" x2="65.786" y2="413.6038" gradientTransform="matrix(-1 0 0 -1 263.454 796)">
			<stop  offset="0" style="stop-color:#535353"/>
			<stop  offset="1" style="stop-color:#808080"/>
		</linearGradient>
		<path class="st10" d="M150.8,407v-65.2l142.3-17.7v65.2c0,1.5-0.7,3-2.2,3.8l-79.2,46.1c-2.9,1.7-6.6,1.7-9.5,0L153,410.9
			C151.6,410,150.8,408.5,150.8,407L150.8,407z"/>
		<path class="st11" d="M291,320.4L241.7,292c-2.9-1.7-6.6-1.7-9.5,0L153,338c-3,1.7-3,6,0,7.7l49.2,28.4c2.9,1.7,6.6,1.7,9.5,0
			l79.2-46.1C293.9,326.3,293.9,322.1,291,320.4z"/>
		<g>
			<path class="st12" d="M249.3,412.7l-5.1,3v-55.3l5.1-3V412.7z"/>
			<path class="st12" d="M218.5,375.2v55.3l-5.7,3.3v-55.3L218.5,375.2z"/>
			<path class="st12" d="M239,363.3v55.3l-5.1,3v-55.3L239,363.3z"/>
			<path class="st12" d="M259.6,406.8l-5.1,3v-55.3l5.1-3V406.8z"/>
			<path class="st12" d="M228.7,369.3v55.3l-5.1,3v-55.3L228.7,369.3z"/>
			<path class="st12" d="M264.7,348.5l4.9-2.8V401l-4.9,2.8V348.5z"/>
			<path class="st12" d="M285.2,336.6l4.9-2.8v55.3l-4.9,2.8V336.6z"/>
			<path class="st12" d="M280.2,394.7l-5.1,3v-55.3l5.1-3V394.7z"/>
			<path class="st12" d="M285.3,336.4l4.9-2.8v55.3l-4.9,2.8V336.4z"/>
		</g>
		<g>
			<path class="st13" d="M178.1,364.9l23.4,13.5v55.3l-23.4-13.5V364.9z"/>
			<path class="st13" d="M175.9,363.7V419l-21.1-12.2v-55.3L175.9,363.7z"/>
		</g>
		<path class="st11" d="M172.3,392.4l9.7,5.6c1,0.6,1.8,0,1.8-1.3s-0.8-2.8-1.8-3.4l-9.7-5.6c-1-0.6-1.8,0-1.8,1.3
			C170.5,390.4,171.3,391.9,172.3,392.4z"/>
	</g>
	<g>
		<path class="st5" d="M74.1,266.1c-1.3,0-2.4-1.1-2.4-2.4v-43c0-1.3,1.1-2.4,2.4-2.4s2.4,1.1,2.4,2.4v43
			C76.5,265,75.4,266.1,74.1,266.1z"/>
	</g>
</g>
</svg>
